<svg width="19" height="18" viewBox="0 0 19 18" fill="none" xmlns="http://www.w3.org/2000/svg">
<path d="M0.000488281 5.60352C0.000488281 4.78092 0.130371 4.02946 0.390137 3.34912C0.656087 2.6626 1.02718 2.06885 1.50342 1.56787C1.97965 1.06689 2.5363 0.680339 3.17334 0.408203C3.81657 0.136068 4.51237 0 5.26074 0C6.12044 0 6.89046 0.188639 7.5708 0.565918C8.25114 0.943197 8.7985 1.44417 9.21289 2.06885C9.63346 1.44417 10.1808 0.943197 10.855 0.565918C11.5353 0.188639 12.3053 0 13.165 0C13.9196 0 14.6154 0.136068 15.2524 0.408203C15.8957 0.680339 16.4523 1.06689 16.9224 1.56787C17.3986 2.06885 17.7666 2.6626 18.0264 3.34912C18.2923 4.02946 18.4253 4.78092 18.4253 5.60352C18.4253 6.9209 18.0758 8.22591 17.377 9.51855C16.6842 10.805 15.6978 12.0605 14.4175 13.2852C13.1434 14.5036 11.6343 15.6694 9.89014 16.7827C9.79118 16.8446 9.67676 16.9002 9.54688 16.9497C9.42318 17.0054 9.31185 17.0332 9.21289 17.0332C9.12012 17.0332 9.00879 17.0054 8.87891 16.9497C8.75521 16.9002 8.64388 16.8446 8.54492 16.7827C6.80078 15.6694 5.28857 14.5036 4.0083 13.2852C2.72803 12.0605 1.73844 10.805 1.03955 9.51855C0.346842 8.22591 0.000488281 6.9209 0.000488281 5.60352ZM1.49414 5.60352C1.49414 6.46322 1.70133 7.33529 2.11572 8.21973C2.53011 9.09798 3.09294 9.96077 3.8042 10.8081C4.51546 11.6554 5.3195 12.4657 6.21631 13.2388C7.1193 14.0057 8.05632 14.7108 9.02734 15.354C9.1263 15.4282 9.18815 15.4653 9.21289 15.4653C9.23763 15.4653 9.30257 15.4282 9.40771 15.354C10.3787 14.7108 11.3127 14.0057 12.2095 13.2388C13.1125 12.4657 13.9165 11.6554 14.6216 10.8081C15.3328 9.96077 15.8957 9.09798 16.3101 8.21973C16.7244 7.33529 16.9316 6.46322 16.9316 5.60352C16.9316 4.78092 16.7677 4.06348 16.4399 3.45117C16.1183 2.83268 15.673 2.35335 15.104 2.01318C14.5412 1.66683 13.901 1.49365 13.1836 1.49365C12.6022 1.49365 12.1012 1.5988 11.6807 1.80908C11.2663 2.01318 10.9076 2.27295 10.6045 2.58838C10.3076 2.89762 10.054 3.20378 9.84375 3.50684C9.70768 3.6862 9.59635 3.8099 9.50977 3.87793C9.42318 3.94596 9.32422 3.97998 9.21289 3.97998C9.10156 3.97998 8.99951 3.94906 8.90674 3.88721C8.82015 3.81917 8.71191 3.69238 8.58203 3.50684C8.38411 3.19759 8.13672 2.88835 7.83984 2.5791C7.54297 2.26986 7.18115 2.01318 6.75439 1.80908C6.32764 1.5988 5.82357 1.49365 5.24219 1.49365C4.52474 1.49365 3.88151 1.66683 3.3125 2.01318C2.74967 2.35335 2.30436 2.83268 1.97656 3.45117C1.65495 4.06348 1.49414 4.78092 1.49414 5.60352Z" fill="#14955D"/>
</svg>
