<svg width="24" height="24" viewBox="0 0 24 24" fill="none" xmlns="http://www.w3.org/2000/svg">
<g clip-path="url(#clip0_1135_19644)">
<path d="M12.0004 5.41865C12.2788 5.41865 12.5066 5.64646 12.5066 5.9249V9.9749H6.43164V5.9249C6.43164 5.64646 6.65945 5.41865 6.93789 5.41865H12.0004ZM12.5066 11.4937V18.5812H6.43164V11.4937H12.5066ZM4.91289 5.9249V18.5812H4.65977C4.23895 18.5812 3.90039 18.9197 3.90039 19.3405C3.90039 19.7613 4.23895 20.0999 4.65977 20.0999H4.91289H6.43164H12.5066H14.0254H14.2785C14.6993 20.0999 15.0379 19.7613 15.0379 19.3405C15.0379 18.9197 14.6993 18.5812 14.2785 18.5812H14.0254V13.5187H14.2785C14.9778 13.5187 15.5441 14.085 15.5441 14.7843V15.7968C15.5441 17.0561 16.563 18.0749 17.8223 18.0749C19.0816 18.0749 20.1004 17.0561 20.1004 15.7968V8.83268C20.1004 8.22834 19.8599 7.64932 19.4328 7.22217L17.0945 4.88076C16.7971 4.58334 16.3162 4.58334 16.0219 4.88076C15.7277 5.17818 15.7245 5.65912 16.0219 5.95338L17.0661 6.99752V8.9624C17.0661 9.90529 17.7115 10.6995 18.5848 10.9241V15.7968C18.5848 16.2176 18.2463 16.5562 17.8254 16.5562C17.4046 16.5562 17.0661 16.2176 17.0661 15.7968V14.7843C17.0661 13.2465 15.8194 11.9999 14.2817 11.9999H14.0286V5.9249C14.0286 4.80799 13.1205 3.8999 12.0036 3.8999H6.93789C5.82098 3.8999 4.91289 4.80799 4.91289 5.9249Z" fill="#1E1F1E"/>
</g>
<defs>
<clipPath id="clip0_1135_19644">
<rect width="16.2" height="16.2" fill="white" transform="translate(3.90039 3.8999)"/>
</clipPath>
</defs>
</svg>
