<svg width="12" height="12" viewBox="0 0 12 12" fill="none" xmlns="http://www.w3.org/2000/svg">
<path d="M6.3973 1.66481C6.17756 1.44506 5.82069 1.44506 5.60094 1.66481L4.47583 2.78992C4.25608 3.00967 4.25608 3.36654 4.47583 3.58629C4.69558 3.80604 5.05245 3.80604 5.27219 3.58629L5.43744 3.42104V5.43744H3.42104L3.58629 5.27219C3.80604 5.05245 3.80604 4.69558 3.58629 4.47583C3.36654 4.25608 3.00967 4.25608 2.78992 4.47583L1.66481 5.60094C1.44506 5.82069 1.44506 6.17756 1.66481 6.3973L2.78992 7.52241C3.00967 7.74216 3.36654 7.74216 3.58629 7.52241C3.80604 7.30267 3.80604 6.94579 3.58629 6.72605L3.42104 6.5608L5.43744 6.56255V8.57896L5.27219 8.41371C5.05245 8.19396 4.69558 8.19396 4.47583 8.41371C4.25608 8.63346 4.25608 8.99033 4.47583 9.21008L5.60094 10.3352C5.82069 10.5549 6.17756 10.5549 6.3973 10.3352L7.52241 9.21008C7.74216 8.99033 7.74216 8.63346 7.52241 8.41371C7.30267 8.19396 6.94579 8.19396 6.72605 8.41371L6.5608 8.57896L6.56255 6.56255H8.57896L8.41371 6.72781C8.19396 6.94755 8.19396 7.30442 8.41371 7.52417C8.63346 7.74392 8.99033 7.74392 9.21008 7.52417L10.3352 6.39906C10.5549 6.17931 10.5549 5.82244 10.3352 5.6027L9.21008 4.47759C8.99033 4.25784 8.63346 4.25784 8.41371 4.47759C8.19396 4.69733 8.19396 5.0542 8.41371 5.27395L8.57896 5.4392L6.56255 5.43744V3.42104L6.72781 3.58629C6.94755 3.80604 7.30442 3.80604 7.52417 3.58629C7.74392 3.36654 7.74392 3.00967 7.52417 2.78992L6.39906 1.66481H6.3973Z" fill="#5D605D"/>
</svg>
